<svg width="611" height="549" viewBox="0 0 611 549" fill="none" xmlns="http://www.w3.org/2000/svg">
<path d="M67.3496 494.687H606.826V490.742H67.3496V494.687Z" fill="#D5E0F2"/>
<path d="M84.9005 490.741H579.676C579.676 490.741 652.341 290.145 573.466 248.112C502.954 210.539 528.775 99.1991 429.579 112.074C330.383 124.938 324.306 162.594 224.533 154.735C76.2075 143.045 -14.9549 246.526 71.6448 389.475C93.5213 425.586 95.2413 462.211 84.8902 490.741H84.9005Z" fill="#ECF2FA"/>
<path d="M390.945 490.424C378.462 490.424 364.825 490.3 364.825 490.3L363.466 472.708H411.174L411.246 470.308L363.373 471.421L361.643 449.039L411.792 451.48L411.854 449.297C411.854 449.297 364.959 446.825 361.457 446.598L359.892 426.36L412.441 432.076C412.008 451.656 411.184 489.476 411.256 490.012C411.308 490.341 401.544 490.434 390.966 490.434L390.945 490.424ZM383.138 483.368C382.561 483.368 382.088 483.842 382.088 484.419C382.088 484.996 382.561 485.469 383.138 485.469H392.418C392.995 485.469 393.469 484.996 393.469 484.419C393.469 483.842 392.995 483.368 392.418 483.368H383.138ZM383.138 459.628C382.561 459.628 382.088 460.101 382.088 460.678C382.088 461.255 382.561 461.729 383.138 461.729H392.418C392.995 461.729 393.469 461.255 393.469 460.678C393.469 460.101 392.995 459.628 392.418 459.628H383.138ZM382.448 436.484C381.871 436.484 381.398 436.958 381.398 437.535C381.398 438.112 381.871 438.585 382.448 438.585H391.728C392.305 438.585 392.779 438.112 392.779 437.535C392.779 436.958 392.305 436.484 391.728 436.484H382.448ZM412.544 426.329H359.871L359.851 426.071L412.575 425.021C412.564 425.433 412.554 425.876 412.544 426.329Z" fill="#DAE9F3"/>
<path d="M412.677 432.097L412.419 432.076L359.871 426.36L359.562 426.319H413.13L412.677 432.097Z" fill="#D1E3EE"/>
<path d="M346.646 426.321V414.425H511.121L511.131 415.167L520.247 414.919H530.021C530.021 414.919 530.021 414.744 530.021 414.425H530.083L530.103 414.827H535.439L535.428 414.425H583.311V421.604L549.498 422.273L549.518 421.789H541.423L541.433 422.428L412.574 424.993L359.85 426.043L346.646 426.301V426.321Z" fill="#DAE9F3"/>
<path d="M542.835 490.876V490.742H546.697V490.783L542.835 490.876Z" fill="#D2E2F4"/>
<path d="M546.696 490.743H542.834L541.433 422.446L541.423 421.808H549.518L549.498 422.292L546.696 490.743Z" fill="#DAE9F3"/>
<path d="M411.771 451.479L361.621 449.038L361.395 449.027L361.22 446.576C361.22 446.576 361.292 446.586 361.426 446.597C364.928 446.834 411.822 449.295 411.822 449.295L411.76 451.479H411.771Z" fill="#D1E3EE"/>
<path d="M411.173 472.698H363.032L362.939 471.431L363.362 471.421L411.235 470.298L411.173 472.698Z" fill="#D1E3EE"/>
<path d="M391.727 438.584H382.447C381.87 438.584 381.396 438.11 381.396 437.533C381.396 436.956 381.87 436.483 382.447 436.483H391.727C392.304 436.483 392.778 436.956 392.778 437.533C392.778 438.11 392.304 438.584 391.727 438.584Z" fill="#D1E3EE"/>
<path d="M392.428 461.728H383.148C382.571 461.728 382.098 461.254 382.098 460.677C382.098 460.1 382.571 459.627 383.148 459.627H392.428C393.005 459.627 393.479 460.1 393.479 460.677C393.479 461.254 393.005 461.728 392.428 461.728Z" fill="#D1E3EE"/>
<path d="M392.428 485.47H383.148C382.571 485.47 382.098 484.996 382.098 484.42C382.098 483.843 382.571 483.369 383.148 483.369H392.428C393.005 483.369 393.479 483.843 393.479 484.42C393.479 484.996 393.005 485.47 392.428 485.47Z" fill="#D1E3EE"/>
<path d="M493.189 471.052C494.064 471.268 495.002 471.33 495.527 471.299C505.559 470.826 515.642 471.114 525.684 471.155C526.622 471.155 527.621 471.145 528.403 470.63C533.234 467.427 522.306 467.21 521.286 467.21C517.403 467.21 513.531 467.21 509.658 467.21C504.364 467.21 500.038 467.427 493.838 467.622C493.076 467.643 491.644 467.694 491.304 468.374C490.532 469.929 491.788 470.702 493.189 471.052Z" fill="#CDE3F1"/>
<path d="M500.152 506.731C502.531 507.267 506.774 507.153 507.289 507.153C511.739 507.153 516.178 507.164 520.627 507.195C521.194 507.195 521.791 507.195 522.327 506.999C522.863 506.793 523.347 506.34 523.408 505.773C523.583 504.146 501.274 503.178 499.235 504.795C497.937 505.825 498.689 506.412 500.162 506.741L500.152 506.731Z" fill="#CDE3F1"/>
<path d="M521.699 505.709L528.27 469.155L527.497 469.011L520.937 505.575L521.699 505.709Z" fill="#CDE3F1"/>
<path d="M499.873 505.709L500.646 505.575L494.085 469.011L493.312 469.155L499.873 505.709Z" fill="#CDE3F1"/>
<path d="M526.623 475.735L526.818 475.395L516.22 469.082L516.024 469.411L526.623 475.735Z" fill="#CDE3F1"/>
<path d="M525.716 480.774L525.911 480.434L508.371 470.021L508.165 470.361L525.716 480.774Z" fill="#CDE3F1"/>
<path d="M524.501 487.53L524.707 487.2L499.359 470.947L499.153 471.277L524.501 487.53Z" fill="#CDE3F1"/>
<path d="M523.296 494.224L523.502 493.894L495.096 476.117L494.89 476.447L523.296 494.224Z" fill="#CDE3F1"/>
<path d="M522.225 500.218L522.42 499.878L496.826 485.778L496.63 486.128L522.225 500.218Z" fill="#CDE3F1"/>
<path d="M516.941 505.74L517.147 505.4L498.329 494.101L498.123 494.441L516.941 505.74Z" fill="#CDE3F1"/>
<path d="M507.537 505.741L507.723 505.401L499.535 500.88L499.339 501.22L507.537 505.741Z" fill="#CDE3F1"/>
<path d="M495.156 476.385L500.11 468.382L499.78 468.176L494.826 476.179L495.156 476.385Z" fill="#CDE3F1"/>
<path d="M496.115 481.775L504.963 469.364L504.643 469.137L495.796 481.538L496.115 481.775Z" fill="#CDE3F1"/>
<path d="M497.289 488.274L510.513 469.364L510.194 469.137L496.959 488.047L497.289 488.274Z" fill="#CDE3F1"/>
<path d="M498.381 494.388L517.198 469.916L516.889 469.679L498.062 494.151L498.381 494.388Z" fill="#CDE3F1"/>
<path d="M499.246 499.209L522.512 470.308L522.214 470.061L498.937 498.962L499.246 499.209Z" fill="#CDE3F1"/>
<path d="M500.4 504.536L527.694 471.124L527.385 470.867L500.091 504.279L500.4 504.536Z" fill="#CDE3F1"/>
<path d="M506.795 504.533L525.468 483.491L525.169 483.233L506.496 504.275L506.795 504.533Z" fill="#CDE3F1"/>
<path d="M513.047 505.688L524.098 491.125L523.789 490.888L512.728 505.451L513.047 505.688Z" fill="#CDE3F1"/>
<path d="M518.012 505.698L522.482 500.167L522.173 499.92L517.703 505.451L518.012 505.698Z" fill="#CDE3F1"/>
<path d="M181.223 460.276H185.981C185.971 459.936 185.961 459.575 185.94 459.194C183.303 459.235 181.223 459.709 181.223 460.276ZM186.311 460.276H186.403C186.414 459.926 186.434 459.565 186.445 459.184C186.393 459.184 186.342 459.184 186.29 459.184C186.28 459.184 186.269 459.184 186.259 459.184C186.28 459.565 186.29 459.936 186.3 460.276H186.311ZM186.733 460.276H191.378C191.378 459.709 189.359 459.246 186.784 459.194C186.764 459.575 186.754 459.936 186.743 460.276H186.733Z" fill="#DFE7F1"/>
<path d="M186.3 492.371C183.499 492.371 181.223 491.887 181.223 491.279H191.378C191.378 491.877 189.102 492.371 186.3 492.371Z" fill="#D4DFF1"/>
<path d="M191.378 491.288H181.223V490.742H191.378V491.288Z" fill="#D4DFF1"/>
<path d="M191.378 490.742H181.223V460.275H185.981C186.043 462.139 186.033 463.303 186.033 463.344L186.331 463.355C186.321 464.127 186.321 464.57 186.321 464.601L186.651 464.591C186.651 464.539 186.64 462.881 186.733 460.275H191.378V490.742ZM186.352 462.088C186.342 461.604 186.331 460.986 186.311 460.275H186.403C186.383 460.945 186.362 461.552 186.352 462.088Z" fill="#DFE7F1"/>
<path d="M186.332 463.343L186.033 463.333C186.033 463.292 186.043 462.128 185.981 460.264C185.971 459.924 185.961 459.563 185.94 459.182C185.755 454.712 185.209 447.441 183.571 441.477C183.654 441.56 183.746 441.632 183.829 441.704C183.829 441.704 183.86 441.611 183.911 441.436C185.539 447.441 186.084 454.712 186.27 459.182C186.29 459.563 186.301 459.934 186.311 460.274C186.332 460.995 186.342 461.603 186.352 462.087C186.342 462.571 186.332 462.993 186.332 463.343Z" fill="#DFE7F1"/>
<path d="M183.84 441.704C183.757 441.632 183.664 441.559 183.582 441.477C181.172 439.283 179.606 434.937 178.587 430.508L179.998 428.973L178.34 429.375C178.123 428.324 177.928 427.284 177.763 426.275L179.04 425.513H177.639C176.918 420.806 176.764 416.984 176.764 416.984C178.051 418.529 179.133 420.054 180.039 421.547L179.648 422.381H180.523C181.841 424.678 182.748 426.872 183.366 428.901L181.594 430.477L183.726 430.219C185.179 436.08 184.21 440.365 183.912 441.446C183.86 441.621 183.829 441.714 183.829 441.714L183.84 441.704Z" fill="#DFE7F1"/>
<path d="M186.331 464.589C186.331 464.558 186.331 464.116 186.341 463.343C186.341 462.993 186.352 462.571 186.362 462.087C186.372 461.551 186.393 460.943 186.413 460.274C186.424 459.924 186.444 459.563 186.455 459.182C186.692 453.775 187.361 445.277 189.266 438.222C189.318 438.387 189.339 438.48 189.339 438.48C189.431 438.408 189.514 438.325 189.606 438.253C187.691 445.277 187.021 453.785 186.784 459.192C186.764 459.573 186.753 459.934 186.743 460.274C186.65 462.869 186.661 464.528 186.661 464.589L186.331 464.6V464.589Z" fill="#DFE7F1"/>
<path d="M189.338 438.474C189.338 438.474 189.307 438.391 189.266 438.216C188.926 437.032 187.68 431.8 189.472 424.6L192.047 424.909L189.905 423.014C190.646 420.563 191.738 417.916 193.334 415.145H194.395L193.921 414.146C195.024 412.354 196.321 410.51 197.877 408.646C197.877 408.646 197.681 413.26 196.816 418.935H195.126L196.671 419.852C196.476 421.078 196.239 422.334 195.981 423.601L193.983 423.117L195.683 424.971C194.447 430.347 192.541 435.621 189.606 438.247C189.523 438.33 189.431 438.402 189.338 438.474Z" fill="#DFE7F1"/>
<path d="M535.43 414.432H530.084L530.012 413.062C529.991 409.684 529.94 402.433 529.857 397.17H534.709L535.43 414.442V414.432Z" fill="#DAE9F3"/>
<path d="M535.449 414.837H530.104L530.083 414.435H535.429L535.449 414.837Z" fill="#D2E6F3"/>
<path d="M530.02 414.432H520.246V390.99C522.903 390.99 529.423 390.99 529.639 390.99C529.732 390.99 529.804 393.637 529.856 397.159H529.176L530 413.051C530 413.638 530 414.102 530 414.421L530.02 414.432ZM524.953 402.958C523.274 402.958 522.193 404.111 522.193 405.79C522.193 407.469 523.552 408.829 525.231 408.829C526.91 408.829 528.27 407.469 528.27 405.79C528.27 404.111 526.632 402.958 524.953 402.958Z" fill="#DAE9F3"/>
<path d="M530.02 414.929H520.246V414.435H530.02C530.02 414.754 530.02 414.929 530.02 414.929Z" fill="#D2E6F3"/>
<path d="M530.01 413.053L529.187 397.16H529.866C529.949 402.434 530 409.674 530.021 413.053H530.01Z" fill="#D2E6F3"/>
<path d="M525.222 408.83C523.543 408.83 522.184 407.47 522.184 405.791C522.184 404.112 523.265 402.959 524.944 402.959C526.623 402.959 528.26 404.112 528.26 405.791C528.26 407.47 526.901 408.83 525.222 408.83Z" fill="#ECF2FA"/>
<path d="M520.226 414.434H511.121L510.668 388.963L520.247 389.334V390.992C519.567 390.992 519.145 390.992 519.145 390.992L520.226 414.434ZM515.293 392.568C514.221 392.568 513.521 393.423 513.521 394.494C513.521 395.565 514.386 396.43 515.457 396.43C516.528 396.43 517.383 395.565 517.383 394.494C517.383 393.423 516.353 392.568 515.282 392.568H515.293Z" fill="#DAE9F3"/>
<path d="M511.131 415.176L511.121 414.435H520.226L520.247 414.929L511.131 415.176Z" fill="#D2E6F3"/>
<path d="M520.247 414.432H520.226L519.145 390.99C519.145 390.99 519.567 390.99 520.247 390.99V414.432Z" fill="#D2E6F3"/>
<path d="M520.246 414.929L520.226 414.435H520.246V414.929Z" fill="#D0E5F3"/>
<path d="M515.458 396.421C514.387 396.421 513.521 395.556 513.521 394.485C513.521 393.413 514.222 392.559 515.293 392.559C516.364 392.559 517.394 393.413 517.394 394.485C517.394 395.556 516.529 396.421 515.468 396.421H515.458Z" fill="#ECF2FA"/>
<path d="M427.982 549C396.856 549 371.622 543.799 371.622 537.382C371.622 532.788 384.569 528.813 403.345 526.928L403.324 527.02L402.83 529.832C402.583 529.74 402.346 529.626 402.13 529.492C402.13 529.492 395.095 534.333 391.48 534.333C391.161 534.333 390.862 534.292 390.604 534.21C390.367 534.138 390.141 534.107 389.925 534.107C387.113 534.107 385.279 539.668 385.279 539.668L411.255 540.781C411.255 540.781 411.338 540.812 411.461 540.812C412.11 540.812 413.861 539.977 410.153 529.503C410.153 529.503 409.782 529.616 409.185 529.75L409.35 528.061L409.515 526.402C415.293 525.991 421.493 525.764 427.961 525.764C434.481 525.764 440.733 525.991 446.563 526.413C446.109 527.02 440.496 534.539 437.283 534.632C433.935 534.725 434.059 541.533 434.059 541.533L458.943 533.993C458.953 533.993 461.528 533.983 456.975 527.422C473.362 529.451 484.321 533.149 484.321 537.382C484.321 543.799 459.087 549 427.961 549H427.982Z" fill="#D6DFF1"/>
<path d="M145.513 524.999C127.005 524.999 111.998 519.798 111.998 513.381C111.998 511.692 113.038 510.085 114.913 508.633V511.022C114.913 511.022 113.873 519.447 139.457 520.292C139.457 520.292 139.663 520.292 140.034 520.292C143.618 520.292 162.683 519.87 164.001 511.022V506.552C164.907 505.883 165.649 505.11 166.185 504.235C171.623 505.718 175.712 507.768 177.7 510.126C173.291 511.805 170.572 514.112 170.572 516.656V521.095C164.434 523.485 155.483 524.999 145.513 524.999Z" fill="#D6DFF1"/>
<path d="M197.372 537.553C181.531 537.553 168.688 532.352 168.688 525.935C168.688 524.473 169.357 523.082 170.572 521.795V523.947C170.572 523.947 169.532 532.373 195.116 533.217C195.116 533.217 195.322 533.217 195.693 533.217C199.278 533.217 218.342 532.795 219.661 523.947V518.623C223.657 520.621 226.057 523.165 226.057 525.935C226.057 532.352 213.213 537.553 197.372 537.553Z" fill="#D6DFF1"/>
<path d="M248.284 516.397C232.443 516.397 219.6 511.196 219.6 504.779C219.6 502.173 221.711 499.774 225.275 497.848C226.562 497.837 227.85 497.827 229.127 497.827V502.802C229.127 502.802 228.087 511.227 253.671 512.071C253.671 512.071 253.877 512.071 254.248 512.071C257.348 512.071 272.128 511.762 276.845 505.881C275.486 511.783 263.219 516.408 248.295 516.408L248.284 516.397Z" fill="#D6DFF1"/>
<path d="M324.925 525.935C311.247 525.935 299.814 522.052 296.94 516.871C300.442 518.591 306.396 520.116 316.541 520.456C316.541 520.456 316.747 520.456 317.117 520.456C320.691 520.456 339.766 520.044 341.085 511.186V509.394C343.34 508.838 345.503 508.086 347.285 507.056C351.24 509.044 353.609 511.577 353.609 514.327C353.609 520.744 340.766 525.945 324.925 525.945V525.935Z" fill="#D6DFF1"/>
<path d="M167.051 482.111V481.926C167.607 481.987 168.163 482.049 168.73 482.101C168.163 482.101 167.607 482.101 167.051 482.101V482.111Z" fill="#D1DBF0"/>
<path d="M423.604 458.775L424.84 455.221C424.84 455.221 424.882 456.138 424.943 457.611C424.47 457.982 424.016 458.373 423.604 458.775Z" fill="#EEF2FA"/>
<path d="M420.01 478.711C419.464 478.351 418.928 477.97 418.393 477.588C418.537 476.816 418.712 475.91 418.938 474.869C419.196 476.28 419.567 477.578 419.999 478.711H420.01Z" fill="#EEF2FA"/>
<path d="M403.139 459.884C403.417 458.206 403.716 456.455 404.025 454.673C403.809 454.961 403.654 455.311 403.551 455.641C403.098 457.021 402.974 458.473 403.139 459.884Z" fill="#C8D3EB"/>
<path d="M418.857 478.681C418.641 478.619 418.435 478.557 418.229 478.505C418.208 478.639 418.188 478.773 418.167 478.897C418.218 478.876 418.27 478.866 418.321 478.856C418.497 478.794 418.682 478.753 418.857 478.681Z" fill="#C8D3EB"/>
<path d="M438.571 365.324C440.167 366.498 440.167 366.498 444.792 364.634C447.645 363.491 448.994 359.835 449.622 357.208L447.202 350.853L452.084 348.999C455.029 344.014 454.556 339.905 453.835 337.608C449.941 333.2 447.315 329.358 445.554 326.113C443.7 327.463 441.537 329.481 440.352 332.149C437.984 337.453 430.197 336.66 430.197 336.66C430.197 336.66 431.443 339.142 432.453 340.275C433.472 341.408 428.611 345.24 430.197 349.082C431.371 351.945 437.458 353.799 440.28 355.488C439.158 354.561 437.52 354.098 437.52 354.098C437.52 354.098 443.03 354.911 443.164 357.414C443.288 359.917 439.343 360.813 439.343 360.813C439.343 360.813 440.249 360.01 440.837 358.959C440.126 359.979 439.116 361.101 438.19 362.039C438.282 362.873 438.416 364.13 438.571 365.324Z" fill="#FAC4B0"/>
<path d="M444.79 364.635C440.166 366.499 440.166 366.499 438.569 365.325C438.755 366.756 438.971 368.106 439.167 368.548L446.582 365.335L446.613 365.304L446.871 364.861C446.861 364.83 446.85 364.81 446.84 364.789C446.84 364.789 447.983 362.4 450.239 358.846L449.621 357.208C448.993 359.845 447.643 363.491 444.79 364.635Z" fill="#F2A385"/>
<path d="M452.094 348.986L455.544 347.678C456.564 345.464 456.996 342.755 457.171 341.179C455.977 339.943 454.875 338.758 453.855 337.605C454.576 339.891 455.06 344.011 452.104 348.996L452.094 348.986Z" fill="#F2A385"/>
<path d="M451.908 519.438C451.908 519.438 449.529 523.6 446.161 521.447V521.437C446.717 523.672 446.759 525.278 446.625 526.36C449.591 527.071 454.215 523.703 454.215 523.703L451.435 518.532L451.414 518.553L451.919 519.428L451.908 519.438Z" fill="#FAC4B0"/>
<path d="M446.162 521.457C449.53 523.599 451.909 519.448 451.909 519.448L451.405 518.573C449.86 519.922 447.398 520.303 445.822 520.396L446.152 521.457V521.467L446.162 521.457Z" fill="#F2A385"/>
<path d="M403.335 527.027L402.841 529.838C404.808 530.59 407.723 530.086 409.216 529.746L409.381 528.057V528.077C409.381 528.077 404.787 528.747 403.335 527.016V527.027Z" fill="#FAC4B0"/>
<path d="M403.336 527.028C404.788 528.748 409.382 528.089 409.382 528.089V528.068L409.547 526.41L409.598 525.895C407.404 526.06 405.035 525.462 403.655 525.04L403.357 526.946L403.336 527.038V527.028Z" fill="#F2A385"/>
<path d="M446.614 526.37C446.614 526.37 446.604 526.391 446.583 526.411C446.13 527.019 440.517 534.538 437.303 534.631C433.956 534.723 434.08 541.531 434.08 541.531L458.964 533.992C458.964 533.992 461.559 534.002 456.996 527.421C456.265 526.36 455.349 525.145 454.205 523.713C454.205 523.713 449.581 527.081 446.614 526.37Z" fill="#383865"/>
<path d="M402.841 529.841C402.593 529.748 402.357 529.635 402.14 529.501C402.14 529.501 393.808 535.238 390.615 534.218C387.422 533.198 385.29 539.667 385.29 539.667L411.266 540.779C411.266 540.779 414.572 541.963 410.174 529.501C410.174 529.501 409.803 529.614 409.206 529.748C407.702 530.088 404.798 530.592 402.83 529.841H402.841Z" fill="#383865"/>
<path d="M447.953 450.936C448.684 443.119 449.354 434.961 449.683 428.534C449.683 428.534 437.653 427.298 425.458 422.107C417.981 418.925 414.458 415.742 412.851 413.754L411.976 413.59C411.976 413.59 407.248 436.259 404.035 454.685C403.726 456.467 403.427 458.218 403.149 459.897C403.129 460.041 403.098 460.185 403.077 460.33C402.984 460.896 402.892 461.462 402.799 462.019C402.727 462.451 402.665 462.884 402.593 463.306C402.521 463.79 402.449 464.264 402.377 464.738C402.253 465.531 402.15 466.293 402.037 467.035C401.924 467.828 401.821 468.59 401.728 469.321C401.285 472.699 401.058 475.316 401.141 476.737C401.203 477.86 401.275 479.456 401.347 481.413C401.357 481.64 401.367 481.876 401.378 482.124C401.419 483.143 401.45 484.256 401.491 485.42C401.635 489.787 401.779 495.07 401.924 500.323C402.243 512.569 402.5 524.651 402.5 524.651C402.5 524.651 402.943 524.826 403.654 525.053C405.024 525.485 407.403 526.072 409.597 525.908C410.441 525.846 411.265 525.671 411.986 525.331C413.892 524.424 415.447 511.756 416.487 500.158C417.002 494.37 417.394 488.86 417.641 485.203C417.703 484.297 417.754 483.494 417.795 482.845C417.826 482.247 417.857 481.773 417.878 481.434C417.898 481.032 417.909 480.805 417.909 480.805C417.909 480.805 417.97 480.167 418.176 478.92C418.197 478.797 418.218 478.663 418.238 478.529C418.29 478.251 418.341 477.942 418.403 477.612C418.547 476.84 418.722 475.934 418.949 474.893C419.649 471.711 420.782 467.272 422.626 461.658L422.605 461.72C421.029 453.975 423.666 435.332 423.666 435.332L424.851 455.252C424.851 455.252 424.892 456.168 424.954 457.641C425.18 462.554 425.757 473.678 426.54 478.107C427.024 480.836 431.061 490.528 435.161 499.952C439.692 510.355 444.307 520.428 444.307 520.428C444.307 520.428 444.925 520.469 445.821 520.418C447.397 520.325 449.848 519.954 451.403 518.595L451.424 518.574C451.609 518.409 451.774 518.245 451.928 518.059C451.928 518.059 450.425 509.284 448.818 499.798C447.324 490.971 445.728 481.526 445.151 477.942C445.151 477.942 446.634 464.995 447.942 450.967L447.953 450.936Z" fill="#3C3E7A"/>
<path d="M443.627 420.746C431.093 413.979 418.991 414.885 412.656 413.505C412.718 413.587 412.78 413.659 412.842 413.742C414.448 415.73 417.971 418.912 425.448 422.095C437.633 427.286 449.673 428.522 449.673 428.522L450.302 422.311C447.479 423.454 443.627 420.735 443.627 420.735V420.746Z" fill="#383865"/>
<path d="M424.84 455.221L423.656 435.301C423.656 435.301 421.019 453.943 422.595 461.689L422.616 461.627L423.604 458.774L424.84 455.221Z" fill="#383865"/>
<path d="M420.371 369.834L417.879 369.113C419.558 369.669 420.371 369.834 420.371 369.834Z" fill="#E75B63"/>
<path d="M457.059 389.807C457.059 389.807 455.668 393.577 453.114 398.005C448.036 406.77 436.264 407.491 435.151 402.269C435.151 402.269 442.567 405.833 457.069 389.807H457.059ZM448.026 393.546C445.709 396.594 444.164 397.542 444.164 397.542C444.164 397.542 448.191 391.084 450.529 381.413C450.529 381.413 450.343 390.497 448.026 393.546ZM453.68 367.827L453.505 368.538C450.24 370.145 446.141 366.118 446.141 366.118L446.615 365.294L446.584 365.325L440.631 375.985C439.014 378.982 437.675 381.742 436.614 384.255L437.397 377.447L436.614 384.255C434.224 389.93 433.184 394.37 433.225 397.48L433.205 397.501L433.225 397.511C433.236 398.397 433.339 399.169 433.514 399.828L425.964 408.655L425.686 406.358L424.501 407.749L422.864 393.412L434.492 372.163L434.327 372.081L434.678 369.825H430.856L431.619 368.837L430.208 368.929C430.208 368.929 435.708 360.947 438.097 361.04C438.097 361.04 410.35 354.139 407.641 350.421C405.612 347.63 400.153 334.621 397.547 328.287L389.833 330.295L389.586 329.07H389.555C390.739 334.209 393.221 345.127 394.323 350.874C395.796 358.547 395.343 358.321 405.499 363.625C411.442 366.725 415.52 368.322 417.889 369.115L419.825 363.625C422.256 366.334 420.382 369.836 420.382 369.836C420.382 369.836 416.221 388.797 409.443 404.257C406.693 410.54 408.341 412.549 412.667 413.496C419.001 414.876 431.104 413.96 443.638 420.737C443.638 420.737 447.501 423.456 450.312 422.313C451.672 421.767 452.784 420.314 453.114 417.235C454.134 407.759 458.192 394.102 463.836 383.04C463.836 383.04 467.564 378.189 461.92 373.894C456.276 369.609 454.247 366.9 454.247 366.9L454.092 366.839L453.845 367.838C453.845 367.838 453.794 367.838 453.691 367.827H453.68Z" fill="#E75B63"/>
<path d="M434.851 368.63L431.607 368.846L430.845 369.835H434.666L434.851 368.63Z" fill="#B34A50"/>
<path d="M425.974 408.667L433.524 399.84C433.338 399.181 433.246 398.398 433.235 397.522L433.215 397.512L425.686 406.37L425.964 408.667H425.974Z" fill="#B34A50"/>
<path d="M440.198 372.099L437.849 373.541L437.396 377.465L436.613 384.274C437.674 381.75 439.013 378.99 440.63 376.003L440.61 376.034C440.61 376.034 440.548 374.108 440.187 372.11L440.198 372.099Z" fill="#B34A50"/>
<path d="M419.815 363.636L417.879 369.126L420.371 369.847C420.371 369.847 422.246 366.356 419.815 363.636Z" fill="#B34A50"/>
<path d="M437.582 373.71L434.492 372.186L422.863 393.434L424.501 407.771L425.685 406.381L433.214 397.523L433.235 397.502C433.194 394.392 434.224 389.953 436.624 384.277L437.406 377.469L437.86 373.545L437.592 373.71H437.582Z" fill="#3C3E7A"/>
<path d="M437.581 373.708L437.849 373.543L440.198 372.101C439.94 370.649 439.538 369.176 438.889 368.363L434.852 368.63L434.667 369.835L434.316 372.091L434.481 372.173L437.571 373.698L437.581 373.708Z" fill="#424887"/>
<path d="M435.152 402.271C436.264 407.493 448.037 406.772 453.115 398.007C455.669 393.588 457.059 389.808 457.059 389.808C442.557 405.834 435.142 402.271 435.142 402.271H435.152Z" fill="#B34A50"/>
<path d="M394.385 318.038C394.92 314.783 395.631 310.272 395.662 309.18C395.713 307.429 389.904 308.047 389.173 307.831C388.442 307.605 385.166 301.847 384.435 300.611C383.704 299.375 380.933 295.029 380.882 297.964C380.83 300.899 387.206 312.188 387.206 312.188C387.206 312.188 385.568 313.321 382.633 310.828C379.697 308.346 379.131 310.097 379.131 310.097C379.131 310.097 380.037 314.042 381.665 314.217C383.302 314.392 384.435 316.081 384.435 316.081C384.909 317.152 385.465 318.069 386.042 318.841C386.093 318.872 390.337 321.571 394.385 318.059V318.038Z" fill="#FAC4B0"/>
<path d="M462.559 345.012L459.881 343.879C458.923 342.962 458.016 342.056 457.162 341.18C456.986 342.756 456.564 345.465 455.534 347.68L462.559 345.012Z" fill="#2C2E43"/>
<path d="M442.278 313.073C442.278 313.073 441.331 316.194 443.72 322.209C444.194 323.393 444.791 324.701 445.564 326.113C447.325 329.357 449.951 333.199 453.845 337.607C454.864 338.761 455.966 339.955 457.161 341.181C458.016 342.056 458.922 342.963 459.88 343.879L462.558 345.012L467.821 343.014L468.501 344.796C470.942 342.767 473.97 338.833 471.601 332.828C471.148 331.674 470.499 330.438 469.593 329.13C461.466 317.255 453.906 327.07 442.278 313.073Z" fill="#383865"/>
<path d="M444.173 397.533C444.173 397.533 445.718 396.585 448.035 393.536C450.353 390.488 450.538 381.403 450.538 381.403C448.2 391.065 444.173 397.533 444.173 397.533Z" fill="#B34A50"/>
<path d="M462.558 345.015L455.534 347.682L452.083 348.99L447.201 350.844L449.622 357.199L450.24 358.837C450.25 358.816 450.27 358.796 450.281 358.775C450.281 358.775 450.538 359.022 450.961 359.352C451.022 357.961 451.434 354.851 453.824 352.688C456.996 349.814 456.368 346.766 459.19 346.477C459.211 346.477 459.231 346.477 459.262 346.477V346.467V346.477C459.653 346.446 459.983 346.477 460.241 346.57C460.725 346.745 460.972 347.126 461.054 347.672C461.054 347.672 461.054 347.682 461.054 347.693C461.075 347.827 461.085 347.981 461.085 348.136C461.219 349.176 461.322 351.019 460.9 353.522C460.9 353.522 460.622 355.799 466.575 353.605H466.565L471.169 351.854L468.491 344.798L467.811 343.017L462.548 345.015H462.558Z" fill="#7A88A6"/>
<path d="M460.91 353.523C461.332 351.031 461.229 349.177 461.095 348.136C461.095 348.373 461.075 348.631 461.034 348.909C460.941 349.712 460.683 350.928 460.045 352.576C460.014 352.689 459.973 352.802 459.942 352.916C459.859 353.142 459.808 353.358 459.767 353.544C459.767 353.564 459.767 353.585 459.756 353.606C459.756 353.637 459.746 353.667 459.746 353.698C459.53 355.398 460.931 355.47 461.487 355.439C461.631 355.429 461.775 355.408 461.919 355.387L466.565 353.616H466.575C460.622 355.81 460.9 353.534 460.9 353.534L460.91 353.523Z" fill="#5B6E90"/>
<path d="M430.814 277.539C436.963 264.263 424.408 259.711 424.408 259.711C440.918 262.049 430.814 277.539 430.814 277.539ZM419.773 282.957V289.384H429.423V282.823C434.378 280.835 437.88 275.995 437.88 270.319C437.88 262.883 431.844 256.847 424.408 256.847C416.961 256.847 410.936 262.883 410.936 270.319C410.936 276.128 414.623 281.072 419.773 282.957Z" fill="#3C3E7A"/>
<path d="M417.837 289.386V294.907H430.815V289.386H417.837Z" fill="#8FB2DD"/>
<path d="M430.815 299.765H428.682V299.497H419.773V299.765H417.837V294.903H430.815V299.765Z" fill="#D1DBF0"/>
<path d="M419.773 299.5V302.497H428.683V299.5H419.773Z" fill="#2E2E46"/>
<path d="M430.815 277.538C430.815 277.538 440.919 262.047 424.408 259.709C424.408 259.709 436.974 264.262 430.815 277.538Z" fill="#FEFEFE"/>
<path d="M452.249 257.344L451.435 256.108L441.043 262.947L441.857 264.183L452.249 257.344Z" fill="#8FB2DD"/>
<path d="M441.383 270.349L453.609 272.636L453.876 271.183L441.651 268.897L441.383 270.349Z" fill="#8FB2DD"/>
<path d="M408.052 261.731L397.567 255.037L396.773 256.283L407.248 262.978L408.052 261.731Z" fill="#8FB2DD"/>
<path d="M408.073 269.992L407.661 268.57L395.734 272.103L396.157 273.514L408.073 269.992Z" fill="#8FB2DD"/>
<path d="M139.458 513.021C148.584 513.021 156.545 511.136 160.779 508.345C153.486 511.404 142.507 511.157 142.507 511.157C116.933 510.312 117.963 501.887 117.963 501.887V499.271C116.026 500.6 114.914 502.124 114.914 503.741C114.914 508.86 125.904 513.011 139.458 513.011V513.021Z" fill="#A9C9EA"/>
<path d="M139.457 501.339C128.457 500.978 122.38 499.207 119.022 497.312C122.092 501.112 131.434 503.873 142.506 503.873C156.06 503.873 167.05 499.722 167.05 494.603C167.05 492.986 165.948 491.461 164.001 490.133V492.069C162.539 501.844 139.457 501.339 139.457 501.339Z" fill="#A9C9EA"/>
<path d="M139.458 494.061C149.511 494.061 158.152 491.775 161.942 488.51C154.722 492.125 142.497 491.867 142.497 491.867C116.922 491.023 117.952 482.598 117.952 482.598V480.322C117.067 480.929 116.366 481.578 115.851 482.248C115.244 483.051 114.914 483.906 114.914 484.792C114.914 489.911 125.904 494.061 139.458 494.061Z" fill="#A9C9EA"/>
<path d="M167.051 475.313C167.051 480.432 156.061 484.582 142.506 484.582C128.952 484.582 117.962 480.432 117.962 475.313V482.595C117.962 482.595 116.922 491.02 142.506 491.864C142.506 491.864 154.732 492.132 161.952 488.507C158.162 491.772 149.52 494.058 139.468 494.058C125.914 494.058 114.924 489.907 114.924 484.788V492.07C114.924 492.07 114.646 494.347 117.973 496.654V501.896C117.973 501.896 116.932 510.321 142.517 511.166C142.517 511.166 153.496 511.403 160.788 508.354C156.565 511.145 148.604 513.03 139.468 513.03C125.914 513.03 114.924 508.879 114.924 503.76V511.042C114.924 511.042 113.884 519.467 139.468 520.312C139.468 520.312 162.55 520.817 164.012 511.042V506.572C164.918 505.903 165.66 505.13 166.196 504.255C166.628 503.544 166.927 502.761 167.051 501.907V494.625C167.051 499.744 156.061 503.894 142.506 503.894C131.445 503.894 122.092 501.134 119.023 497.333C122.381 499.229 128.458 501 139.458 501.361C139.458 501.361 162.539 501.865 164.002 492.091V487.271C165.629 486.066 166.762 484.531 167.051 482.605V475.323V475.313Z" fill="#8FB2DD"/>
<path d="M142.505 482.555C122.503 481.896 118.775 476.602 118.105 474.325C118.012 474.655 117.961 474.985 117.961 475.324C117.961 480.443 128.951 484.594 142.505 484.594C156.059 484.594 167.049 480.443 167.049 475.324C167.049 474.933 166.977 474.552 166.854 474.171C164.176 483.039 142.505 482.555 142.505 482.555Z" fill="#A9C9EA"/>
<path d="M142.506 475.273C128.951 475.273 117.962 471.122 117.962 466.004V473.285C117.962 473.285 117.91 473.687 118.096 474.326C118.775 476.602 122.504 481.896 142.495 482.555C142.495 482.555 164.166 483.029 166.844 474.171C166.926 473.883 166.998 473.594 167.04 473.285V466.004C167.04 471.122 156.05 475.273 142.495 475.273H142.506Z" fill="#8FB2DD"/>
<path d="M142.505 459.64C151.826 459.64 159.376 462.493 159.376 466.005C159.376 469.527 151.826 472.38 142.505 472.38C133.184 472.38 125.634 469.527 125.634 466.005C125.634 462.482 133.184 459.64 142.505 459.64ZM117.961 466.005C117.961 471.124 128.951 475.275 142.505 475.275C156.059 475.275 167.049 471.124 167.049 466.005C167.049 460.886 156.059 456.735 142.505 456.735C137.499 456.735 132.844 457.302 128.961 458.28C122.338 459.938 117.961 462.781 117.961 466.005Z" fill="#A9C9EA"/>
<path d="M139.077 463.695C140.508 462.49 145.02 462.366 146.42 463.52C146.626 463.695 147.038 463.922 146.75 464.231C146.287 464.704 145.71 464.838 145.112 464.365C144.721 464.056 144.206 463.705 143.907 464.365C143.629 464.983 143.969 465.364 144.68 465.477C145.277 465.57 145.854 465.807 146.42 466.033C147.018 466.26 147.523 466.61 147.461 467.362C147.45 467.753 147.244 468.042 146.977 468.32C145.669 469.669 140.045 469.71 138.696 468.402C138.51 468.217 138.304 468 138.552 467.815C138.83 467.599 139.242 467.331 139.509 467.403C139.952 467.516 140.302 467.918 140.735 468.134C141.281 468.402 141.95 468.721 142.249 467.856C142.476 467.218 142.311 466.661 141.497 466.486C140.848 466.342 140.199 466.157 139.571 465.92C138.16 465.405 138.006 464.632 139.097 463.705L139.077 463.695ZM142.507 472.367C151.828 472.367 159.377 469.514 159.377 465.992C159.377 462.469 151.828 459.627 142.507 459.627C133.185 459.627 125.636 462.48 125.636 465.992C125.636 469.514 133.185 472.367 142.507 472.367Z" fill="#8FB2DD"/>
<path d="M139.55 465.923C140.178 466.15 140.827 466.345 141.476 466.49C142.289 466.665 142.454 467.221 142.228 467.859C141.929 468.725 141.27 468.405 140.714 468.138C140.281 467.932 139.931 467.52 139.488 467.406C139.21 467.334 138.798 467.602 138.53 467.818C138.283 468.014 138.489 468.22 138.674 468.405C140.023 469.724 145.647 469.672 146.955 468.323C147.223 468.055 147.429 467.767 147.439 467.365C147.491 466.603 146.996 466.263 146.399 466.036C145.833 465.82 145.256 465.583 144.658 465.48C143.948 465.367 143.608 464.986 143.886 464.368C144.185 463.709 144.7 464.059 145.091 464.368C145.699 464.842 146.275 464.708 146.729 464.234C147.027 463.925 146.615 463.698 146.399 463.523C144.998 462.37 140.487 462.483 139.055 463.698C137.964 464.625 138.118 465.398 139.529 465.913L139.55 465.923Z" fill="#A9C9EA"/>
<path d="M229.136 495.523C229.136 500.642 240.125 504.793 253.68 504.793C262.805 504.793 270.767 502.908 275 500.117C267.708 503.176 256.729 502.929 256.729 502.929C231.144 502.084 232.184 493.659 232.184 493.659V491.053C230.248 492.382 229.136 493.906 229.136 495.523Z" fill="#A9C9EA"/>
<path d="M255.535 468.36C255.525 468.751 255.319 469.04 255.051 469.318C254.114 470.276 250.993 470.574 248.789 470.193C251.055 469.441 253.094 468.422 254.557 467.052C255.134 467.278 255.597 467.629 255.546 468.36H255.535ZM281.264 493.656V486.374C281.264 491.493 270.274 495.644 256.72 495.644C245.658 495.644 236.306 492.873 233.237 489.073C236.594 490.968 242.671 492.739 253.671 493.1C253.671 493.1 276.753 493.604 278.215 483.83V476.548C278.215 481.667 267.226 485.818 253.671 485.818C243.124 485.818 234.133 483.305 230.662 479.772C234.112 481.564 240.117 483.181 250.592 483.521C250.592 483.521 273.673 484.026 275.136 474.251V466.969C275.136 472.088 264.146 476.239 250.592 476.239C242.29 476.239 234.957 474.684 230.518 472.294C231.063 472.325 231.609 472.346 232.176 472.367C232.176 472.367 235.709 472.449 240.096 471.955C242.98 472.82 246.626 473.345 250.602 473.345C259.923 473.345 267.473 470.492 267.473 466.969C267.473 464.271 263.013 461.964 256.72 461.037V455.815C256.72 460.934 245.73 465.085 232.176 465.085C218.621 465.085 207.632 460.934 207.632 455.815V463.097C207.632 463.097 206.777 470.111 226.047 471.975V474.241C226.047 474.241 225.769 476.528 229.127 478.845V483.809C229.127 483.809 228.849 486.086 232.176 488.393V493.635C232.176 493.635 231.136 502.06 256.72 502.905C256.72 502.905 267.699 503.142 274.992 500.093C270.758 502.884 262.807 504.769 253.671 504.769C240.117 504.769 229.127 500.619 229.127 495.5V502.781C229.127 502.781 228.087 511.207 253.671 512.051C253.671 512.051 271.562 512.443 276.835 505.861C277.556 504.965 278.04 503.945 278.215 502.781V498.301C278.401 498.167 278.576 498.023 278.741 497.889C280.08 496.746 281.007 495.355 281.264 493.635V493.656Z" fill="#8FB2DD"/>
<path d="M253.681 493.102C242.681 492.741 236.604 490.97 233.246 489.075C236.305 492.875 245.657 495.646 256.729 495.646C270.284 495.646 281.273 491.495 281.273 486.376C281.273 484.759 280.171 483.235 278.225 481.906V483.842C276.762 493.617 253.681 493.112 253.681 493.112V493.102Z" fill="#A9C9EA"/>
<path d="M275.145 472.058V474.263C273.682 484.037 250.601 483.532 250.601 483.532C240.126 483.182 234.121 481.565 230.671 479.783C234.142 483.306 243.134 485.829 253.68 485.829C267.235 485.829 278.225 481.678 278.225 476.559C278.225 474.932 277.102 473.397 275.145 472.058Z" fill="#A9C9EA"/>
<path d="M273.384 463.553C272.21 462.451 270.5 461.452 268.358 460.597C268.111 460.505 267.864 460.402 267.606 460.309C267.235 460.175 266.854 460.041 266.463 459.918C264.764 459.372 262.868 458.919 260.808 458.558C259.655 458.362 258.45 458.187 257.214 458.064C257.049 458.043 256.884 458.023 256.709 458.012V461.051C263.002 461.978 267.462 464.285 267.462 466.983C267.462 470.506 259.912 473.359 250.591 473.359C246.616 473.359 242.969 472.844 240.086 471.968C235.698 472.463 232.165 472.38 232.165 472.38C231.599 472.36 231.053 472.339 230.507 472.308C234.946 474.687 242.279 476.253 250.581 476.253C264.135 476.253 275.125 472.102 275.125 466.983C275.125 465.768 274.497 464.604 273.374 463.543L273.384 463.553Z" fill="#A9C9EA"/>
<path d="M248.789 470.196C250.993 470.577 254.124 470.279 255.051 469.321C255.319 469.053 255.525 468.765 255.535 468.363C255.586 467.632 255.123 467.282 254.546 467.055C253.094 468.414 251.044 469.434 248.778 470.196H248.789Z" fill="#A9C9EA"/>
<path d="M215.304 455.836C215.304 452.314 222.853 449.471 232.175 449.471C241.496 449.471 249.045 452.324 249.045 455.836C249.045 459.359 241.496 462.212 232.175 462.212C222.853 462.212 215.304 459.359 215.304 455.836ZM255.38 452.819C254.545 451.902 253.351 451.047 251.837 450.285C251.703 450.213 251.548 450.151 251.404 450.079C251.383 450.069 251.363 450.058 251.332 450.048C251.167 449.976 251.013 449.904 250.848 449.821C250.096 449.492 249.282 449.173 248.417 448.884C247.665 448.637 246.872 448.4 246.048 448.184C242.103 447.164 237.324 446.556 232.164 446.556C221.937 446.556 213.182 448.915 209.495 452.273C208.29 453.364 207.62 454.57 207.62 455.826C207.62 460.945 218.61 465.096 232.164 465.096C245.719 465.096 256.708 460.945 256.708 455.826C256.708 455.435 256.636 455.043 256.513 454.662C256.296 454.024 255.915 453.395 255.369 452.808L255.38 452.819Z" fill="#A9C9EA"/>
<path d="M228.209 457.65C228.487 457.434 228.899 457.166 229.167 457.238C229.61 457.352 229.96 457.753 230.393 457.97C230.939 458.237 231.608 458.557 231.907 457.691C232.133 457.053 231.958 456.497 231.155 456.322C230.506 456.177 229.857 455.992 229.229 455.755C227.818 455.24 227.663 454.468 228.755 453.541C230.187 452.336 234.698 452.212 236.099 453.366C236.305 453.541 236.717 453.767 236.428 454.076C235.965 454.55 235.388 454.684 234.791 454.21C234.399 453.901 233.884 453.551 233.586 454.21C233.308 454.828 233.647 455.209 234.358 455.323C234.955 455.415 235.532 455.652 236.099 455.879C236.696 456.105 237.201 456.455 237.139 457.218C237.129 457.609 236.923 457.897 236.655 458.176C235.347 459.525 229.723 459.566 228.374 458.248C228.189 458.062 227.983 457.846 228.23 457.661L228.209 457.65ZM249.045 455.837C249.045 452.315 241.496 449.472 232.175 449.472C222.853 449.472 215.304 452.325 215.304 455.837C215.304 459.36 222.853 462.213 232.175 462.213C241.496 462.213 249.045 459.36 249.045 455.837Z" fill="#8FB2DD"/>
<path d="M236.635 458.164C236.903 457.897 237.109 457.608 237.119 457.207C237.17 456.444 236.676 456.105 236.079 455.868C235.512 455.651 234.935 455.414 234.338 455.311C233.627 455.198 233.287 454.817 233.566 454.199C233.864 453.54 234.379 453.89 234.771 454.199C235.368 454.673 235.955 454.539 236.408 454.065C236.707 453.766 236.295 453.53 236.079 453.355C234.678 452.201 230.167 452.314 228.735 453.53C227.643 454.457 227.798 455.229 229.209 455.744C229.837 455.971 230.486 456.166 231.135 456.311C231.949 456.486 232.113 457.042 231.887 457.68C231.588 458.546 230.919 458.226 230.373 457.958C229.94 457.752 229.59 457.34 229.147 457.227C228.869 457.155 228.457 457.423 228.189 457.639C227.942 457.835 228.148 458.041 228.333 458.226C229.683 459.545 235.306 459.493 236.614 458.154L236.635 458.164Z" fill="#A9C9EA"/>
<path d="M316.54 513.174C323.142 513.174 329.126 512.185 333.534 510.589C329.806 510.929 326.984 510.867 326.984 510.867C301.409 510.022 302.439 501.597 302.439 501.597V496.324C300.575 496.818 298.896 497.415 297.465 498.075C294.045 499.671 292.006 501.69 292.006 503.904C292.006 509.023 302.996 513.174 316.55 513.174H316.54Z" fill="#A9C9EA"/>
<path d="M326.974 503.587C313.42 503.587 302.43 499.437 302.43 494.318V501.599C302.43 501.599 301.39 510.025 326.974 510.869C326.974 510.869 329.796 510.931 333.525 510.591C329.116 512.188 323.132 513.176 316.53 513.176C302.976 513.176 291.986 509.026 291.986 503.907V511.188C291.986 511.188 291.615 514.258 296.93 516.874C300.432 518.594 306.385 520.118 316.53 520.458C316.53 520.458 339.612 520.963 341.074 511.188V509.396C343.33 508.84 345.493 508.088 347.275 507.058C349.53 505.74 351.158 503.979 351.518 501.61V494.328C351.518 499.447 340.528 503.598 326.974 503.598V503.587Z" fill="#8FB2DD"/>
<path d="M326.974 487.943C336.295 487.943 343.845 490.796 343.845 494.308C343.845 497.831 336.295 500.684 326.974 500.684C317.653 500.684 310.103 497.831 310.103 494.308C310.103 490.786 317.653 487.943 326.974 487.943ZM302.43 494.308C302.43 499.427 313.419 503.578 326.974 503.578C340.528 503.578 351.518 499.427 351.518 494.308C351.518 489.189 340.528 485.038 326.974 485.038C318.971 485.038 311.854 486.491 307.374 488.726C304.273 490.281 302.43 492.207 302.43 494.308Z" fill="#A9C9EA"/>
<path d="M330.877 491.834C331.083 492.009 331.505 492.236 331.207 492.545C330.743 493.019 330.166 493.152 329.569 492.679C329.178 492.37 328.663 492.019 328.364 492.679C328.086 493.297 328.426 493.678 329.136 493.791C329.734 493.884 330.311 494.121 330.877 494.347C331.474 494.574 331.979 494.924 331.917 495.676C331.907 496.067 331.701 496.356 331.433 496.634C330.125 497.983 324.501 498.024 323.152 496.716C322.967 496.531 322.761 496.314 323.008 496.129C323.286 495.913 323.698 495.645 323.966 495.717C324.409 495.83 324.759 496.232 325.192 496.448C325.737 496.716 326.407 497.035 326.706 496.17C326.922 495.532 326.767 494.975 325.943 494.79C325.295 494.646 324.646 494.46 324.017 494.224C322.606 493.709 322.452 492.936 323.544 492.009C324.975 490.804 329.487 490.681 330.887 491.834H330.877ZM310.103 494.306C310.103 497.828 317.652 500.681 326.973 500.681C336.295 500.681 343.844 497.828 343.844 494.306C343.844 490.784 336.295 487.941 326.973 487.941C317.652 487.941 310.103 490.794 310.103 494.306Z" fill="#8FB2DD"/>
<path d="M324.018 494.237C324.646 494.463 325.295 494.659 325.944 494.803C326.758 494.978 326.922 495.535 326.706 496.183C326.407 497.049 325.738 496.729 325.192 496.462C324.759 496.256 324.409 495.844 323.966 495.73C323.688 495.658 323.276 495.926 323.009 496.142C322.761 496.328 322.967 496.544 323.153 496.729C324.502 498.048 330.126 497.996 331.434 496.647C331.701 496.379 331.907 496.091 331.918 495.689C331.969 494.927 331.475 494.587 330.878 494.36C330.311 494.144 329.734 493.907 329.137 493.804C328.426 493.691 328.086 493.31 328.364 492.692C328.663 492.033 329.178 492.383 329.569 492.692C330.177 493.166 330.754 493.032 331.207 492.558C331.506 492.259 331.094 492.022 330.878 491.847C329.477 490.694 324.965 490.807 323.534 492.022C322.442 492.949 322.597 493.722 324.008 494.237H324.018Z" fill="#A9C9EA"/>
<path d="M195.117 525.936C181.563 525.936 170.573 521.785 170.573 516.667V523.948C170.573 523.948 169.533 532.374 195.117 533.218C195.117 533.218 218.199 533.723 219.662 523.948V516.667C219.662 521.785 208.672 525.936 195.117 525.936Z" fill="#8FB2DD"/>
<path d="M195.116 510.292C204.438 510.292 211.987 513.145 211.987 516.667C211.987 520.18 204.438 523.033 195.116 523.033C185.795 523.033 178.246 520.18 178.246 516.667C178.246 513.145 185.795 510.292 195.116 510.292ZM170.572 516.667C170.572 521.786 181.562 525.937 195.116 525.937C208.671 525.937 219.661 521.786 219.661 516.667C219.661 511.548 208.671 507.398 195.116 507.398C188.308 507.398 182.149 508.448 177.7 510.137C173.291 511.816 170.572 514.123 170.572 516.667Z" fill="#A9C9EA"/>
<path d="M191.676 514.358C193.108 513.153 197.619 513.03 199.02 514.183C199.226 514.358 199.638 514.585 199.35 514.894C198.886 515.368 198.309 515.501 197.712 515.028C197.321 514.719 196.806 514.368 196.507 515.028C196.219 515.646 196.558 516.027 197.279 516.14C197.877 516.233 198.454 516.48 199.02 516.696C199.617 516.923 200.122 517.273 200.06 518.025C200.06 518.416 199.844 518.705 199.576 518.983C198.268 520.332 192.645 520.373 191.295 519.055C191.11 518.869 190.904 518.653 191.151 518.468C191.429 518.251 191.841 517.984 192.109 518.056C192.552 518.169 192.902 518.571 193.335 518.787C193.881 519.055 194.55 519.374 194.849 518.509C195.075 517.87 194.911 517.314 194.097 517.139C193.448 516.995 192.799 516.809 192.171 516.573C190.76 516.058 190.605 515.285 191.697 514.358H191.676ZM195.106 523.03C204.427 523.03 211.977 520.177 211.977 516.665C211.977 513.143 204.427 510.29 195.106 510.29C185.785 510.29 178.235 513.143 178.235 516.665C178.235 520.177 185.785 523.03 195.106 523.03Z" fill="#8FB2DD"/>
<path d="M192.151 516.587C192.78 516.813 193.428 517.009 194.077 517.153C194.891 517.328 195.056 517.885 194.829 518.523C194.53 519.388 193.861 519.069 193.315 518.801C192.883 518.595 192.532 518.183 192.089 518.07C191.811 517.998 191.399 518.266 191.132 518.482C190.884 518.667 191.09 518.884 191.276 519.069C192.625 520.387 198.249 520.336 199.557 518.997C199.825 518.729 200.031 518.441 200.041 518.039C200.092 517.277 199.598 516.937 199.001 516.71C198.434 516.494 197.857 516.257 197.26 516.154C196.549 516.041 196.209 515.66 196.487 515.042C196.786 514.383 197.301 514.733 197.692 515.042C198.3 515.516 198.877 515.382 199.33 514.908C199.629 514.599 199.217 514.372 199.001 514.197C197.6 513.044 193.089 513.157 191.657 514.372C190.565 515.299 190.72 516.072 192.131 516.587H192.151Z" fill="#A9C9EA"/>
<path d="M499.596 295.296C497.618 295.296 496.011 293.69 496.011 291.712C496.011 289.734 497.618 288.128 499.596 288.128C501.573 288.128 503.18 289.734 503.18 291.712C503.18 293.69 501.573 295.296 499.596 295.296ZM521.112 288.128C523.089 288.128 524.696 289.734 524.696 291.712C524.696 293.69 523.089 295.296 521.112 295.296C519.134 295.296 517.527 293.69 517.527 291.712C517.527 289.734 519.134 288.128 521.112 288.128ZM510.359 295.296C508.381 295.296 506.774 293.69 506.774 291.712C506.774 289.734 508.381 288.128 510.359 288.128C512.336 288.128 513.943 289.734 513.943 291.712C513.943 293.69 512.336 295.296 510.359 295.296ZM488.843 295.296C486.865 295.296 485.258 293.69 485.258 291.712C485.258 289.734 486.865 288.128 488.843 288.128C490.82 288.128 492.427 289.734 492.427 291.712C492.427 293.69 490.82 295.296 488.843 295.296ZM478.09 295.296C476.112 295.296 474.506 293.69 474.506 291.712C474.506 289.734 476.112 288.128 478.09 288.128C480.067 288.128 481.674 289.734 481.674 291.712C481.674 293.69 480.067 295.296 478.09 295.296ZM467.337 295.296C465.359 295.296 463.753 293.69 463.753 291.712C463.753 289.734 465.359 288.128 467.337 288.128C469.315 288.128 470.921 289.734 470.921 291.712C470.921 293.69 469.315 295.296 467.337 295.296ZM456.584 295.296C454.607 295.296 453 293.69 453 291.712C453 289.734 454.607 288.128 456.584 288.128C458.562 288.128 460.168 289.734 460.168 291.712C460.168 293.69 458.562 295.296 456.584 295.296ZM499.019 278.508H448.128C447.314 278.508 446.655 279.126 446.655 279.888V304C446.655 304.762 447.314 305.38 448.128 305.38H471.055C471.117 308.233 469.294 311.292 469.294 311.292C472.703 309.5 474.207 307.244 474.856 305.38H532.379C533.193 305.38 533.842 304.762 533.842 304V279.888C533.842 279.126 533.183 278.508 532.379 278.508H499.029H499.019Z" fill="#8FB2DD"/>
<path d="M456.574 288.129C454.596 288.129 452.989 289.736 452.989 291.713C452.989 293.691 454.596 295.298 456.574 295.298C458.551 295.298 460.158 293.691 460.158 291.713C460.158 289.736 458.551 288.129 456.574 288.129Z" fill="#FEFEFE"/>
<path d="M467.337 288.129C465.36 288.129 463.753 289.736 463.753 291.713C463.753 293.691 465.36 295.298 467.337 295.298C469.315 295.298 470.922 293.691 470.922 291.713C470.922 289.736 469.315 288.129 467.337 288.129Z" fill="#FEFEFE"/>
<path d="M478.09 288.129C476.113 288.129 474.506 289.736 474.506 291.713C474.506 293.691 476.113 295.298 478.09 295.298C480.068 295.298 481.674 293.691 481.674 291.713C481.674 289.736 480.068 288.129 478.09 288.129Z" fill="#FEFEFE"/>
<path d="M488.843 288.129C486.866 288.129 485.259 289.736 485.259 291.713C485.259 293.691 486.866 295.298 488.843 295.298C490.821 295.298 492.427 293.691 492.427 291.713C492.427 289.736 490.821 288.129 488.843 288.129Z" fill="#FEFEFE"/>
<path d="M499.596 288.129C497.618 288.129 496.012 289.736 496.012 291.713C496.012 293.691 497.618 295.298 499.596 295.298C501.574 295.298 503.18 293.691 503.18 291.713C503.18 289.736 501.574 288.129 499.596 288.129Z" fill="#FEFEFE"/>
<path d="M513.933 291.713C513.933 289.736 512.326 288.129 510.349 288.129C508.371 288.129 506.765 289.736 506.765 291.713C506.765 293.691 508.371 295.298 510.349 295.298C512.326 295.298 513.933 293.691 513.933 291.713Z" fill="#FEFEFE"/>
<path d="M521.113 295.298C523.09 295.298 524.697 293.691 524.697 291.713C524.697 289.736 523.09 288.129 521.113 288.129C519.135 288.129 517.528 289.736 517.528 291.713C517.528 293.691 519.135 295.298 521.113 295.298Z" fill="#FEFEFE"/>
<path d="M430.208 368.942L431.619 368.849L434.863 368.633L438.901 368.365C439.54 369.168 439.952 370.651 440.209 372.104C440.559 374.102 440.631 376.028 440.631 376.028L440.652 375.997L446.605 365.337L439.189 368.55C439.004 368.107 438.788 366.758 438.592 365.327C438.437 364.132 438.293 362.885 438.211 362.041C438.149 361.433 438.108 361.052 438.108 361.052C435.718 360.949 430.218 368.942 430.218 368.942H430.208Z" fill="#EA717D"/>
<path d="M128.251 201.238L128.045 200.743C125.687 201.732 123.256 202.772 120.825 203.843H122.154C124.214 202.937 126.253 202.062 128.262 201.227L128.251 201.238Z" fill="#A2B3D2"/>
<path d="M370.809 407.151H100.227V392.556H356.225V218.44H370.809V407.151Z" fill="#A6B3C8"/>
<path d="M114.388 226.794H110.968V372.823H248.572V369.527L256.925 373.42L248.572 377.313V373.956H109.835V226.794H106.601L110.495 218.441L114.388 226.794ZM127.983 305.339V360.473H120.228V305.339H127.983ZM140.631 286.058V360.473H132.876V286.058H140.631ZM153.269 262.966V360.473H145.514V262.966H153.269ZM165.917 255.087V360.473H158.162V255.087H165.917ZM178.565 268.312V360.463H170.81V268.312H178.565ZM191.203 287.459V360.463H183.447V287.459H191.203ZM203.851 270.846V360.463H196.095V270.846H203.851ZM216.499 250.287V360.463H208.743V250.287H216.499ZM221.391 225.908H229.147V360.463H221.391V225.908ZM241.785 218.43V360.463H234.029V218.43H241.785ZM321.216 317.369H334.224V320.778H321.216V317.369ZM307.023 259.372H265.7V255.962H307.023V259.372ZM334.224 235.765H288.432V232.356H334.224V235.765ZM334.224 243.634H321.216V240.225H334.224V243.634ZM321.216 309.459H334.224V312.868H321.216V309.459ZM321.216 281.258V277.849H334.224V281.258H321.216ZM321.216 289.158V285.749H334.224V289.158H321.216ZM334.224 301.559V304.968H321.216V301.559H334.224ZM321.216 297.058V293.649H334.224V297.058H321.216ZM312.451 255.962H334.235V259.372H312.451V255.962ZM265.711 243.634V240.225H315.582V243.634H265.711ZM334.235 248.094V251.503H265.711V248.094H334.235ZM265.711 235.765V232.356H282.819V235.765H265.711ZM356.245 392.546V203.836H254.155L238.066 216.752L225.82 209.861L187.423 275.594L161.931 236.548L123.833 283.277L121.546 281.413L162.199 231.552L187.279 269.98L224.739 205.865L237.778 213.198L249.448 203.836H85.6621V392.546H356.245Z" fill="#434878"/>
<path d="M120.229 360.473H127.984V305.349H120.229V360.473Z" fill="#EEF2FA"/>
<path d="M132.877 360.473H140.633V286.057H132.877V360.473Z" fill="#EEF2FA"/>
<path d="M145.514 360.475H153.269V262.978H145.514V360.475Z" fill="#EEF2FA"/>
<path d="M158.161 360.474H165.917V255.098H158.161V360.474Z" fill="#EEF2FA"/>
<path d="M170.8 360.47H178.555V268.319H170.8V360.47Z" fill="#EEF2FA"/>
<path d="M183.446 360.474H191.202V287.47H183.446V360.474Z" fill="#EEF2FA"/>
<path d="M196.085 360.472H203.841V270.854H196.085V360.472Z" fill="#EEF2FA"/>
<path d="M208.733 360.471H216.479V250.295H208.733V360.471Z" fill="#EEF2FA"/>
<path d="M221.371 360.473H229.127V225.918H221.371V360.473Z" fill="#EEF2FA"/>
<path d="M234.019 360.473H241.774V218.44H234.019V360.473Z" fill="#EEF2FA"/>
<path d="M321.195 281.268H334.204V277.859H321.195V281.268Z" fill="#2D2E46"/>
<path d="M321.195 289.169H334.204V285.77H321.195V289.169Z" fill="#2D2E46"/>
<path d="M321.195 297.08H334.204V293.671H321.195V297.08Z" fill="#2D2E46"/>
<path d="M321.195 304.976H334.204V301.567H321.195V304.976Z" fill="#2D2E46"/>
<path d="M321.195 312.876H334.204V309.477H321.195V312.876Z" fill="#2D2E46"/>
<path d="M321.195 320.787H334.204V317.378H321.195V320.787Z" fill="#2D2E46"/>
<path d="M265.69 235.775H282.798V232.376H265.69V235.775Z" fill="#8FB2DD"/>
<path d="M321.195 243.645H334.204V240.246H321.195V243.645Z" fill="#8FB2DD"/>
<path d="M265.69 243.645H315.561V240.246H265.69V243.645Z" fill="#8FB2DD"/>
<path d="M265.69 251.512H334.204V248.113H265.69V251.512Z" fill="#8FB2DD"/>
<path d="M312.43 259.381H334.203V255.982H312.43V259.381Z" fill="#8FB2DD"/>
<path d="M265.69 259.381H307.002V255.982H265.69V259.381Z" fill="#8FB2DD"/>
<path d="M288.412 235.775H334.204V232.376H288.412V235.775Z" fill="#8FB2DD"/>
<path d="M224.708 205.885L187.248 270.001L162.168 231.573L121.516 281.444L123.802 283.308L161.901 236.578L187.392 275.614L225.79 209.882L238.036 216.772L254.134 203.856L327.499 144.942L331.557 149.649L341.043 133.911L321.916 138.474L325.563 142.697L251.642 202.064L251.209 202.404L249.417 203.856L237.747 213.219L224.708 205.885Z" fill="#6BBF59"/>
<path d="M109.836 226.793V373.955H248.572V377.313L256.925 373.42L248.572 369.526V372.822H110.979V226.793H114.388L110.495 218.44L106.602 226.793H109.836Z" fill="#6BBF59"/>
<path d="M446.151 366.114C446.151 366.114 450.251 370.142 453.516 368.535L453.691 367.824C452.753 367.762 447.696 367.289 446.883 364.858L446.625 365.301L446.151 366.125V366.114Z" fill="#B34A50"/>
<path d="M459.715 357.765C460.014 357.642 460.282 357.528 460.529 357.405C460.508 357.415 459.571 357.703 458.407 358.404C458.809 358.177 459.242 357.961 459.715 357.765Z" fill="#FAC4B0"/>
<path d="M458.336 358.445C458.254 358.497 458.181 358.538 458.109 358.59C458.181 358.538 458.264 358.497 458.336 358.445Z" fill="#FAC4B0"/>
<path d="M457.923 346.947C457.923 346.947 457.882 350.202 456.502 351.829L457.923 346.947ZM461.497 355.424C461.631 355.414 461.724 355.403 461.724 355.403C461.724 355.403 457.141 357.607 460.169 351.345C460.169 351.345 460.807 350.202 461.075 347.658C460.993 347.112 460.746 346.731 460.261 346.556C460.261 346.566 459.705 351.582 458.315 353.21L460.261 346.556C460.004 346.463 459.685 346.432 459.283 346.463C459.273 346.71 459.005 350.429 457.666 352.004L459.283 346.463C459.262 346.463 459.242 346.463 459.211 346.463C456.389 346.741 457.017 349.79 453.845 352.674C451.455 354.847 451.033 357.958 450.981 359.338C451.084 359.42 451.198 359.503 451.321 359.595C451.321 359.595 453.639 360.708 455.719 359.245C457.81 357.783 460.519 357.391 460.54 357.391C463.475 356.011 462.95 355.094 462.95 355.094C462.95 355.094 462.507 355.259 461.94 355.352C461.806 355.372 461.662 355.393 461.508 355.403L461.497 355.424Z" fill="#FAC4B0"/>
<path d="M459.943 352.912C459.974 352.798 460.015 352.685 460.046 352.572C459.901 352.942 459.819 353.262 459.768 353.54C459.809 353.354 459.86 353.138 459.943 352.912Z" fill="#FAC4B0"/>
<path d="M459.768 353.603C459.768 353.634 459.758 353.665 459.758 353.696C459.758 353.665 459.758 353.634 459.768 353.603Z" fill="#FAC4B0"/>
<path d="M461.033 348.904C461.074 348.626 461.095 348.368 461.095 348.131C461.095 347.977 461.085 347.822 461.064 347.688C461.074 347.781 461.116 348.183 461.033 348.904Z" fill="#FAC4B0"/>
<path d="M451.312 359.609C452.321 360.34 453.928 361.247 455.431 361.061C456.224 359.969 457.213 359.166 458.109 358.589C458.192 358.538 458.264 358.497 458.336 358.445C458.357 358.435 458.387 358.414 458.408 358.404C459.572 357.703 460.509 357.415 460.53 357.405C460.519 357.405 457.8 357.796 455.709 359.259C453.629 360.721 451.312 359.609 451.312 359.609Z" fill="#F2A385"/>
<path d="M451.311 359.607C451.188 359.514 451.074 359.432 450.971 359.35C450.549 359.02 450.292 358.773 450.292 358.773C450.281 358.793 450.261 358.814 450.25 358.835C447.995 362.378 446.852 364.778 446.852 364.778C446.862 364.808 446.872 364.829 446.882 364.85C447.696 367.291 452.753 367.754 453.691 367.816C453.783 367.826 453.845 367.826 453.845 367.826L454.092 366.827L455.544 361.039C455.503 361.049 455.462 361.049 455.431 361.049C453.927 361.245 452.321 360.328 451.311 359.597V359.607Z" fill="#EA717D"/>
<path d="M389.575 329.081L389.822 330.306L397.537 328.298L396.909 326.29C396.981 326.619 397.053 326.949 397.125 327.299C397.125 327.299 392.644 329.441 389.575 329.091V329.081Z" fill="#B34A50"/>
<path d="M389.574 329.08C392.643 329.44 397.124 327.288 397.124 327.288C397.052 326.938 396.98 326.598 396.907 326.278C395.826 321.458 394.281 319.048 394.281 319.048C394.271 319.058 394.25 319.079 394.24 319.089L394.003 320.778L388.606 321.479C388.606 321.479 388.482 321.427 388.266 321.293C387.864 321.365 387.617 321.396 387.617 321.396C388.524 326.278 389.533 329.08 389.533 329.08H389.564H389.574Z" fill="#EA717D"/>
<path d="M394.013 320.777L394.25 319.087L394.394 318.027C390.347 321.539 386.103 318.84 386.052 318.809C386.968 320.293 387.823 320.993 388.276 321.281C388.493 321.415 388.616 321.467 388.616 321.467L394.013 320.766V320.777Z" fill="#F2A385"/>
<path d="M460.159 351.346C457.141 357.598 461.714 355.404 461.714 355.404C461.714 355.404 461.622 355.425 461.488 355.425C460.921 355.466 459.521 355.383 459.747 353.684C459.747 353.653 459.747 353.622 459.757 353.591C459.757 353.571 459.768 353.55 459.768 353.529C459.819 353.251 459.902 352.932 460.046 352.561C460.684 350.913 460.932 349.698 461.035 348.895C461.127 348.174 461.076 347.772 461.065 347.679C461.065 347.659 461.065 347.659 461.065 347.659C460.808 350.203 460.159 351.346 460.159 351.346Z" fill="#F2A385"/>
<path d="M458.304 353.22C459.684 351.593 460.24 346.577 460.25 346.567L458.304 353.22Z" fill="#F2A385"/>
<path d="M457.655 352.018C458.994 350.442 459.262 346.734 459.272 346.476V346.466V346.476L457.655 352.018Z" fill="#F2A385"/>
<path d="M457.923 346.95L456.502 351.832C457.882 350.204 457.923 346.95 457.923 346.95Z" fill="#F2A385"/>
<path d="M439.343 360.811C439.343 360.811 443.298 359.904 443.164 357.412C443.04 354.909 437.52 354.095 437.52 354.095C437.52 354.095 439.157 354.559 440.28 355.486C440.743 355.867 441.114 356.32 441.248 356.866C441.423 357.577 441.186 358.318 440.815 358.967C440.228 360.018 439.322 360.821 439.322 360.821L439.343 360.811Z" fill="#F2A385"/>
</svg>
